# xmcd
#
# Track frame offsets:
# 150
# 18324
# 30933
# 47911
# 64585
#
# Disc length: 1080 seconds
#
#
# Revision: 0
# Processed by: cddbd v1.5.2PL0 Copyright (c) Steve Scherf et al.
# Submitted via: FreeRIP 2.945 
#
DISCID=33043605
DTITLE=KAGA - A mord´s mostige Musi
DYEAR=1900
DGENRE=National Folk
TTITLE0=Da Berg ruaft
TTITLE1=Gschichtl
TTITLE2=Lachn und Wana
TTITLE3=Landler
TTITLE4=Mundart
EXTD=
EXTT0=
EXTT1=
EXTT2=
EXTT3=
EXTT4=
PLAYORDER=
